PathFileType	4	(X/Y/Z)	C:/Users/beibeiliu/ov580/test_trc/User2\sequence.40_training_dense_left.trc
DataRate	CameraRate	NumFrames	NumMarkers	Units	OrigDataRate	OrigDataStartFrame	OrigNumFrames
120	120	17	19	mm	120	174	198
Frame#	Time	ThumbCMC			ThumbMCP			ThumbIP			ThumbTip			IndexMCP			IndexPIP			IndexTip			MiddleMCP			MiddlePIP			MiddleTip			RingMCP			RingPIP			RingTip			PinkyMCP			PinkyPIP			PinkyTip			BackHand1			BackHand2			BackHand3	
		X0	Y0	Z0	X1	Y1	Z1	X2	Y2	Z2	X3	Y3	Z3	X4	Y4	Z4	X5	Y5	Z5	X6	Y6	Z6	X7	Y7	Z7	X8	Y8	Z8	X9	Y9	Z9	X10	Y10	Z10	X11	Y11	Z11	X12	Y12	Z12	X13	Y13	Z13	X14	Y14	Z14	X15	Y15	Z15	X16	Y16	Z16	X17	Y17	Z17	X18	Y18	Z18	
173	1.44167	-222.145	2.42448	-25.392	-203.221	35.9371	-33.4468	-181.23	62.9719	-47.4793	-157.13	69.3133	-52.3599	-191.353	-4.03766	-98.2903	-179.378	17.9241	-124.907	-163.698	43.0167	-126.737	-159.523	-13.718	-94.6355	-141.353	16.4138	-112.273	-140.248	51.0891	-91.9542	-140.153	-1.92777	-75.0762	-124.931	27.6522	-75.825	-140.129	56.3931	-57.9787	-125.204	-13.134	-53.3198	-108.438	7.97647	-65.0804	-92.6247	27.343	-74.6079	-173.573	-43.1321	-37.9479	-185.885	-53.6084	-12.8131	-211.308	-37.719	-40.595	
174	1.45	-222.003	2.44669	-25.6795	-203.324	33.963	-34.5068	-181.799	62.1417	-47.8743	-156.696	65.2529	-52.6893	-195.236	-4.36975	-98.1057	-178.056	14.8457	-123.359	-164.435	44.8759	-127.906	-159.435	-14.2663	-95.5337	-139.688	16.0885	-110.878	-136.759	46.7995	-93.003	-135.794	-2.76774	-75.4488	-129.488	29.0679	-78.6451	-138.283	54.7049	-57.8737	-124.649	-14.4518	-52.9383	-110.15	4.49663	-66.5117	-94.2898	24.8598	-76.1114	-168.61	-44.4028	-39.0057	-185.13	-56.6907	-11.8906	-210.742	-39.0304	-38.705	
175	1.45833	-224.392	0.579769	-23.4351	-206.811	37.0557	-34.8967	-182.967	59.3273	-46.0616	-159.305	72.4462	-53.4797	-190.503	-5.76776	-98.7715	-183.938	11.5821	-123.832	-168.363	41.7163	-131.503	-158.703	-16.1888	-96.6035	-139.593	8.9888	-113.231	-136.155	47.924	-96.1148	-137.597	-5.00003	-76.6929	-128.292	26.0054	-82.1293	-133.606	52.6801	-66.6471	-123.561	-16.9253	-53.494	-108.623	0.489453	-66.4914	-93.3985	18.4564	-80.2934	-172.498	-43.8585	-34.6534	-187.128	-55.5328	-12.2805	-210.769	-39.7399	-37.4935	
176	1.46667	-223.383	2.58599	-27.5387	-209.609	37.7968	-34.1691	-188.9	62.856	-44.3825	-166.622	76.6964	-51.7472	-190.824	-6.49236	-99.2488	-178.565	12.458	-125.482	-167.923	37.2763	-134.398	-159.53	-17.1278	-97.6346	-143.037	6.66048	-117.049	-133.709	46.8508	-107.728	-137.681	-9.28538	-78.5642	-122.829	17.1684	-87.832	-127.508	52.834	-77.6269	-128.095	-18.9122	-56.7754	-104.486	-3.82449	-70.0823	-90.6456	10.8651	-83.7421	-169.996	-44.6513	-35.7614	-185.135	-56.8246	-12.1043	-209.849	-39.6556	-41.4666	
177	1.475	-227.807	2.81803	-27.9203	-212.577	38.6588	-33.5057	-195.716	64.0652	-42.4761	-173.032	81.263	-51.7735	-193.473	-6.07547	-104.307	-181.283	9.60646	-126.844	-168.948	37.4494	-140.037	-162.729	-18.6936	-96.9279	-141.973	5.71368	-121.888	-129.677	38.6199	-119.268	-142.35	-13.3215	-84.8948	-124.702	8.09868	-96.1482	-120.707	45.306	-94.4382	-128.032	-23.8434	-52.7208	-106.42	-11.9107	-71.1187	-88.7921	3.21251	-88.3214	-168.485	-44.8539	-39.9824	-184.044	-58.1174	-9.31341	-208.975	-42.4904	-39.3772	
178	1.48333	-227.884	2.94494	-27.4605	-210.812	34.6776	-33.2253	-198.454	68.5831	-43.4704	-182.629	87.1182	-48.1732	-194.747	-6.00617	-100.726	-181.369	8.14443	-126.587	-170.664	35.3867	-144.36	-165.474	-17.6968	-103.112	-146.15	4.18559	-125.46	-130.762	34.933	-130.054	-144.929	-17.5605	-84.9693	-123.394	3.18061	-101.103	-119.375	35.269	-107.768	-126.077	-24.4768	-56.4147	-110.406	-13.2393	-72.5133	-92.7844	0.456638	-90.8328	-167.686	-44.8009	-38.0711	-186.392	-57.6445	-14.6026	-211.211	-42.0344	-40.389	
179	1.49167	-227.943	2.10536	-24.3874	-214.84	35.4723	-29.1204	-195.61	65.7319	-41.1536	-181.68	83.7387	-45.1655	-192.902	-4.76189	-104.076	-187.747	8.93983	-125.358	-170.275	29.843	-141.159	-167.333	-17.7955	-99.4883	-149.232	-0.34893	-124.063	-130.496	29.7492	-133.489	-141.945	-19.491	-81.8458	-128.446	-1.43817	-102.429	-117.74	30.64	-112.359	-125.012	-22.0614	-56.2768	-107.994	-8.73432	-73.8939	-91.8444	5.26959	-87.2373	-169.43	-44.8354	-35.4758	-187.453	-55.9771	-10.5398	-209.983	-42.0193	-36.962	
180	1.5	-225.179	1.50181	-25.6447	-212.666	35.9219	-29.8697	-190.752	67.5583	-44.5489	-171.537	82.6515	-49.8657	-191.807	-7.54029	-99.4352	-183.496	10.148	-126.802	-175.349	32.7814	-143.718	-166.363	-16.79	-102.729	-148.589	2.25666	-127.372	-132.162	31.3386	-136.613	-140.899	-18.6253	-86.362	-131.107	-1.79746	-103.816	-118.634	30.5072	-113.089	-127.225	-17.2868	-58.8693	-109.028	-2.67141	-71.807	-94.2941	15.2062	-83.731	-172.015	-43.6401	-39.785	-182.789	-58.2577	-14.426	-206.504	-41.0918	-36.1872	
181	1.50833	-222.297	0.94352	-27.1942	-208.439	39.4431	-34.93	-188.57	64.9217	-44.3938	-166.36	79.7913	-51.8209	-193.775	-5.81384	-105.624	-185.761	9.03436	-125.862	-176.354	36.876	-145.145	-165.035	-17.9153	-101.35	-151.816	0.863728	-126.543	-131.573	34.5159	-136.27	-142.1	-18.4653	-82.7037	-127.792	4.30923	-105.698	-121.025	32.3006	-110.749	-124.987	-15.921	-54.0605	-110.424	6.85178	-72.8312	-97.5366	29.9525	-79.7264	-170.894	-43.6712	-40.0223	-183.149	-56.851	-10.5657	-204.207	-41.278	-41.2842	
182	1.51667	-222.98	-0.10362	-25.153	-206.368	38.3668	-35.1386	-182.512	64.4997	-46.4847	-161.814	76.2347	-51.267	-193.221	-6.52549	-103.051	-185.553	10.0141	-126.792	-173.338	37.5185	-143.883	-164.927	-17.106	-102.281	-145.866	5.6642	-128.034	-132.51	33.81	-132.743	-144.072	-13.9633	-88.317	-127.759	7.44245	-103.961	-120.284	41.9842	-104.421	-124.159	-9.80943	-57.5147	-108.698	13.0207	-65.2582	-106.879	44.3221	-69.8074	-167.518	-42.3921	-38.0606	-183.906	-56.4741	-11.1508	-205.819	-41.0291	-39.3502	
183	1.525	-221.15	-0.852084	-27.3188	-205.033	37.897	-35.6621	-181.078	61.9587	-47.1688	-153.34	66.2434	-52.2009	-189.186	-7.05776	-104.604	-184.002	14.0869	-130.758	-173.746	37.1872	-141.874	-161.802	-18.5483	-98.6948	-144.01	6.22842	-126.901	-131.83	39.6103	-129.511	-141.54	-14.3636	-84.6737	-124.304	10.2501	-100.526	-124.935	42.5987	-97.9263	-125.024	-6.89001	-54.9191	-117.367	23.2284	-64.4906	-117.813	49.8622	-64.9731	-171.013	-42.5268	-37.4495	-180.624	-57.5054	-10.8265	-205.771	-42.3842	-37.7683	
184	1.53333	-221.523	1.17934	-30.5482	-204.37	37.3832	-36.5115	-177.955	58.2681	-47.3055	-154.018	64.9155	-51.9078	-189.291	-7.77997	-102.926	-182.267	10.2298	-126.462	-167.938	35.66	-138.151	-158.971	-17.0588	-102.187	-147.106	3.57845	-125.497	-133.742	38.4763	-128.289	-138.07	-13.6761	-85.7845	-126.846	10.9287	-99.17	-126.307	46.7402	-91.7187	-125.524	-2.40877	-55.9599	-120.913	27.8567	-61.9148	-124.94	54.457	-54.285	-168.553	-43.2023	-38.5803	-183.552	-54.4244	-10.3316	-205.666	-41.5175	-40.8736	
185	1.54167	-221.761	1.427	-28.8722	-202.842	36.3212	-37.9224	-176.757	58.8588	-50.7057	-150.133	60.7108	-54.1647	-188.432	-7.91965	-105.499	-178.626	8.99397	-126.484	-164.938	36.2866	-134.954	-163.175	-18.6699	-102.705	-143.327	2.92597	-122.889	-131.76	37.8896	-123.755	-141.542	-15.3089	-82.668	-128.097	8.02081	-99.9579	-128.736	43.6843	-90.233	-129.858	-4.98395	-55.3886	-120.631	29.9149	-58.404	-130.204	53.5419	-52.9195	-169.619	-43.7017	-39.3558	-184.233	-53.8318	-14.2165	-207.006	-40.9157	-41.4774	
186	1.55	-224.072	2.04635	-29.7689	-202.687	36.7133	-38.1411	-178.898	61.4918	-49.6592	-151.629	63.4216	-54.123	-188.226	-9.9751	-101.218	-174.537	11.1504	-128.202	-163.199	36.2618	-131.281	-160.588	-21.3924	-97.3593	-142.453	3.32451	-123.827	-131.455	37.6653	-120.443	-140.994	-15.3316	-87.1622	-124.399	8.84072	-98.9097	-126.442	43.8727	-87.6018	-124.522	-3.47639	-55.5031	-122.128	25.6739	-61.1822	-133.911	54.5335	-54.6275	-166.077	-44.9269	-35.3807	-183.245	-56.8751	-13.3604	-209.358	-41.901	-38.5882	
187	1.55833	-220.887	-1.04289	-28.2415	-203.322	33.1727	-37.1219	-178.372	59.4576	-50.225	-150.941	62.6875	-57.1145	-186.215	-11.3142	-104.404	-176.202	5.87992	-126.612	-160.74	40.2657	-126.732	-163.021	-22.3586	-102.893	-140.809	-0.47042	-122.51	-133.305	34.7069	-116.408	-142.8	-17.9739	-88.4021	-128.176	6.16025	-101.137	-127.267	37.7146	-91.2878	-125.092	-6.29419	-57.4143	-119.301	24.6859	-61.8833	-131.078	51.4398	-53.9406	-170.064	-42.7205	-41.2497	-181.44	-56.031	-12.0006	-204.424	-43.4462	-40.5765	
188	1.56667	-223.971	2.85077	-28.5625	-205.865	38.7229	-38.3063	-180.934	62.1522	-51.2651	-152.711	64.2563	-57.3081	-190.341	-9.14768	-103.677	-177.932	9.56021	-126.025	-160.218	41.1246	-123.055	-164.859	-23.0632	-98.4948	-146.743	0.391022	-123.752	-137.56	40.4328	-114.213	-143.725	-20.6054	-87.5091	-127.499	3.95492	-102.284	-129.306	38.1502	-91.5619	-128.936	-8.43836	-62.752	-118.37	18.4536	-65.9541	-125.023	46.1859	-56.6189	-168.872	-45.96	-41.53	-187.518	-56.8523	-10.4713	-208.125	-41.1323	-42.1588	
189	1.575	-228.382	13.7434	-25.3108	-209.056	44.0055	-34.0897	-188.793	71.9805	-45.986	-161.484	78.8507	-58.1458	-203.397	2.43401	-101.028	-186.271	21.6561	-125.038	-167.379	48.3595	-123.506	-179.928	-14.5807	-102.623	-157.231	5.49619	-125.879	-139.546	40.8897	-115.55	-160.006	-17.5905	-93.9441	-136.815	3.97338	-108.428	-131.709	37.5069	-97.8442	-138.048	-15.2946	-69.0646	-126.236	10.5586	-76.5558	-124.616	41.1304	-67.1423	-186.854	-41.6608	-41.3406	-199.244	-53.2571	-13.043	-221.308	-28.6299	-39.0545	
